<?xml version="1.0" encoding="utf-8"?>
<svg version="1.1" id="Capa_1" xmlns="http://www.w3.org/2000/svg" xmlns:xlink="http://www.w3.org/1999/xlink" x="0px" y="0px"
	 viewBox="0 0 409 363" style="enable-background:new 0 0 409 363;" xml:space="preserve">
<style type="text/css">
	.st0{fill:#FFFFFF;}
	.st1{fill:none;stroke:#0096D6;stroke-width:3;stroke-linecap:round;stroke-linejoin:round;stroke-miterlimit:10;}
</style>
<g>
	<path class="st0" d="M198.4,130.7c4.5-5.6,9.7-10.2,15.9-13.9c10.4-6.3,22.3-9.5,35.6-9.5c13.2,0,24.9,3.1,35.2,9.4
		c10.3,6.3,18.3,15.2,24.1,26.7c5.7,11.6,8.6,24.8,8.7,39.8v7.1c0,15.2-2.8,28.6-8.4,40.2c-5.6,11.7-13.6,20.7-24,26.9
		c-10.4,6.3-22.1,9.4-35.4,9.4s-25-3-35.2-9.1s-18.2-14.8-24-26.1c-5.7-11.3-8.7-24.3-9-39V184c0-15.2,2.8-28.7,8.4-40.3
		C192.6,138.9,195.3,134.6,198.4,130.7"/>
</g>
<g>
	<path class="st0" d="M213.4,241.7c-5.1,10.4-11.8,18.8-20.1,25.1c-9.8,7.5-20.6,11.2-32.6,11.3H115v-182h44.7c3.6,0,7,0.3,10.3,0.9
		 M170.1,97c8.2,1.5,15.8,4.8,22.7,10c9.8,7.3,17.4,17.6,22.9,30.9s8.3,28.2,8.3,44.7v8.4c0,16.7-2.7,31.6-8.1,44.8
		c-0.8,2-1.7,4-2.6,5.9"/>
</g>
<path class="st1" d="M207,118.6c0,0,40.3,66,0,137"/>
</svg>
