<?xml version="1.0" standalone="no"?>
<!DOCTYPE svg PUBLIC "-//W3C//DTD SVG 20010904//EN"
 "http://www.w3.org/TR/2001/REC-SVG-20010904/DTD/svg10.dtd">
<svg version="1.0" xmlns="http://www.w3.org/2000/svg"
 width="129.000000pt" height="142.000000pt" viewBox="0 0 129.000000 142.000000"
 preserveAspectRatio="xMidYMid meet">

<g transform="translate(0.000000,142.000000) scale(0.100000,-0.100000)"
fill="#000000" stroke="none">
<path d="M299 1334 c-17 -21 -24 -140 -10 -176 l11 -28 180 0 c99 0 180 -2
180 -4 0 -3 -80 -128 -178 -278 -99 -150 -184 -283 -190 -295 -16 -29 -15
-156 0 -171 17 -17 649 -17 666 0 16 16 16 180 0 196 -8 8 -65 12 -190 12 -98
0 -178 2 -178 5 0 3 82 130 181 283 100 152 186 289 192 305 12 36 4 131 -12
151 -12 14 -55 16 -326 16 -276 0 -314 -2 -326 -16z"/>
</g>
</svg>
